<svg width="14" height="14" viewBox="0 0 14 14" fill="none" xmlns="http://www.w3.org/2000/svg">
<path d="M7.0026 13.6654C3.32071 13.6654 0.335938 10.6806 0.335938 6.9987C0.335938 3.3168 3.32071 0.332031 7.0026 0.332031C10.6845 0.332031 13.6693 3.3168 13.6693 6.9987C13.6652 10.6789 10.6828 13.6613 7.0026 13.6654ZM7.0026 8.9987C6.63441 8.9987 6.33594 9.29718 6.33594 9.66536V9.66536C6.33594 10.0336 6.63441 10.332 7.0026 10.332V10.332C7.37079 10.332 7.66927 10.0336 7.66927 9.66536V9.66536C7.66927 9.29718 7.37079 8.9987 7.0026 8.9987V8.9987ZM7.0026 3.66536C6.63441 3.66536 6.33594 3.96384 6.33594 4.33203V6.9987C6.33594 7.36689 6.63441 7.66536 7.0026 7.66536V7.66536C7.37079 7.66536 7.66927 7.36689 7.66927 6.9987V4.33203C7.66927 3.96384 7.37079 3.66536 7.0026 3.66536V3.66536Z" fill="#EB5757"/>
</svg>
