<svg width="12" height="12" viewBox="0 0 12 12" fill="none" xmlns="http://www.w3.org/2000/svg">
<path d="M7.89812 1.58881C7.6139 1.46655 7.4095 1.19824 7.4095 0.888836C7.4095 0.434864 7.83479 0.0986654 8.25718 0.265014C9.8473 0.891235 11.1093 2.15373 11.7353 3.74613C11.9015 4.16889 11.565 4.59435 11.1107 4.59435C10.8015 4.59435 10.5332 4.39035 10.411 4.10626C9.92472 2.97581 9.02539 2.07372 7.89812 1.58881ZM1.58881 4.1056C1.46657 4.38991 1.19819 4.59435 0.888709 4.59435C0.434735 4.59435 0.0984557 4.16916 0.264514 3.74664C0.890563 2.15375 2.1533 0.890901 3.74613 0.264715C4.16889 0.0985167 4.59435 0.435004 4.59435 0.889259C4.59435 1.19851 4.39034 1.46684 4.1063 1.58915C2.97583 2.07597 2.07373 2.97772 1.58881 4.1056ZM4.10761 10.4153C4.3909 10.5372 4.59435 10.8048 4.59435 11.1132C4.59435 11.5662 4.17007 11.9017 3.74839 11.7362C2.15492 11.1105 0.891532 9.84805 0.265014 8.25718C0.0986654 7.83479 0.434864 7.4095 0.888836 7.4095C1.19824 7.4095 1.46656 7.61389 1.58876 7.89813C2.07385 9.0265 2.97649 9.92856 4.10761 10.4153ZM10.4112 7.89814C10.5334 7.61389 10.8018 7.4095 11.1112 7.4095C11.5651 7.4095 11.9013 7.83478 11.735 8.25718C11.1089 9.84705 9.84705 11.1089 8.25718 11.735C7.83478 11.9013 7.4095 11.5651 7.4095 11.1112C7.4095 10.8018 7.61389 10.5334 7.89814 10.4112C9.02546 9.92662 9.92662 9.02546 10.4112 7.89814Z" fill="#545454"/>
</svg>
