<svg width="12" height="12" viewBox="0 0 12 12" fill="none" xmlns="http://www.w3.org/2000/svg">
<path d="M0 1.33333C0 0.596954 0.596954 0 1.33333 0H9.05719C9.41081 0 9.74995 0.140476 10 0.390524L11.8047 2.19526C11.9298 2.32029 12 2.48986 12 2.66667V10.6667C12 11.403 11.403 12 10.6667 12H1.33333C0.596954 12 0 11.403 0 10.6667V1.33333ZM4 10.6667H8V6.66667H4V10.6667ZM9.33333 10.6667H10.6667V2.94281L9.33333 1.60948V2.66667C9.33333 3.40305 8.73638 4 8 4H4C3.26362 4 2.66667 3.40305 2.66667 2.66667V1.33333H1.33333V10.6667H2.66667V6.66667C2.66667 5.93029 3.26362 5.33333 4 5.33333H8C8.73638 5.33333 9.33333 5.93029 9.33333 6.66667V10.6667ZM4 1.33333V2.66667H8V1.33333H4Z" fill="#545454"/>
</svg>
